<svg xml:space="preserve" style="enable-background:new 0 0 763.1 229.6;" viewBox="0 0 763.1 229.6" y="0px" x="0px" xmlns:xlink="http://www.w3.org/1999/xlink" xmlns="http://www.w3.org/2000/svg" id="logo" version="1.1">
<style type="text/css">
	.st0{fill:#040708;}
	.st1{fill:#4FB948;}
</style>
<g id="text">
	<g>
		<path d="M97,85h49.2v12.3h-36v12.5h31V122h-31v24.4H97V85z" class="st0"></path>
		<path d="M158.4,85h13.2v61.4h-13.2V85z" class="st0"></path>
		<path d="M189.1,85h13.2v49.1h32.5v12.3h-45.6V85z" class="st0"></path>
		<path d="M326,85h11.8l21,26.3L380,85h11.8v61.4h-13.2v-40.3l-19.7,24.5l-19.7-24.5v40.3H326V85z" class="st0"></path>
		<path d="M405.7,85h48.6v12.3h-35.4v11.8h30.4V121h-30.4v13.2h36.3v12.3h-49.5V85z" class="st0"></path>
		<path d="M469.4,85h11.8l29.8,38.1V85h13.2v61.4h-11.8l-29.8-38.1v38.1h-13.2V85z" class="st0"></path>
		<path d="M556.6,97.3h-20.5V85h54.2v12.3h-20.5v49.1h-13.2V97.3z" class="st0"></path>
		<path d="M600.5,85h13.2v61.4h-13.2V85z" class="st0"></path>
		<path d="M626.3,85h14l16,45.2h0.4l16-45.2h14L664,146.4h-14.9L626.3,85z" class="st0"></path>
		<path d="M699.6,85h48.6v12.3h-35.4v11.8h30.4V121h-30.4v13.2H749v12.3h-49.5V85z" class="st0"></path>
	</g>
</g>
<g id="arrows">
	<path d="M316.1,141.4c-2.3,4-6.4,6.4-11,6.4H292v7.2l-11.4-11.4l11.4-11.4v6.6h13.1c1.9,0,2.8-1.3,3.1-1.8
		c0.3-0.5,0.9-2,0-3.6l-10.3-17.5l7.8-4.6l10.3,17.5C318.3,132.6,318.3,137.4,316.1,141.4z" class="st1"></path>
	<path d="M245.9,141.6c-2.3-4-2.2-8.7,0.1-12.7l6.7-11.2l-6.2-3.7l15.6-4l4,15.6l-5.7-3.4l-6.7,11.2
		c-1,1.6-0.3,3.1,0,3.6c0.3,0.6,1.3,1.8,3.1,1.8l20.3,0l0,9l-20.3,0C252.3,147.9,248.2,145.6,245.9,141.6z" class="st1"></path>
	<path d="M280.5,81.4c4.6,0,8.7,2.4,11,6.3l6.5,11.3l6.2-3.6l-4.2,15.6l-15.6-4.2l5.7-3.3l-6.5-11.3
		c-0.9-1.6-2.5-1.8-3.1-1.8c-0.6,0-2.2,0.2-3.1,1.8l-10,17.7l-7.8-4.4l10-17.7C271.9,83.8,275.9,81.4,280.5,81.4z" class="st1"></path>
</g>
<g id="circles">
	<path d="M206.4,150.8c-14.2,36.1-49.4,61.7-90.5,61.7c-53.7,0-97.2-43.5-97.2-97.2c0-53.7,43.5-97.2,97.2-97.2
		c25.7,0,49,10,66.4,26.2c2.9-1.6,5.9-2.9,9.2-3.9C172.3,21,145.5,8.9,115.9,8.9C57.1,8.9,9.5,56.6,9.5,115.4
		c0,58.8,47.6,106.4,106.4,106.4c46.3,0,85.8-29.6,100.4-71H206.4z" class="st1"></path>
	<path d="M188.6,150.8c-13.1,26.9-40.8,45.4-72.7,45.4C71.2,196.2,35,160,35,115.4c0-44.2,35.5-80.2,79.6-80.9
		c-0.2-0.8-0.3-1.7-0.5-2.5c12.4,4.5,38.9,3.5,51.9,15.5c1.8,1.6,3.3,3.8,4.5,6.3c1.4-1.6,2.9-3,4.5-4.4
		c-15.7-14.1-36.5-22.7-59.2-22.7c-49,0-88.7,39.7-88.7,88.7c0,49,39.7,88.7,88.7,88.7c36.4,0,67.6-21.9,81.3-53.2H188.6z" class="st1"></path>
	<path d="M171.1,150.8c-11.7,18.1-32,30.2-55.2,30.2c-36.2,0-65.6-29.4-65.6-65.6s29.4-65.6,65.6-65.6c1,0,2,0,3,0.1
		c-0.7-2-1.4-4-2-6.2c-0.3,0-0.7,0-1,0c-39.6,0-71.8,32.1-71.8,71.8s32.1,71.7,71.8,71.7c26.7,0,50-14.6,62.4-36.3H171.1z" class="st1"></path>
	<path d="M150.9,150.8c-9,8.9-21.4,14.3-35,14.3c-27.5,0-49.8-22.3-49.8-49.8s22.3-49.8,49.8-49.8
		c3.9,0,7.7,0.4,11.4,1.3c-1-1.6-2.1-3.3-3.1-5.2c-2.7-0.4-5.5-0.6-8.3-0.6c-30,0-54.3,24.3-54.3,54.3s24.3,54.3,54.3,54.3
		c16.5,0,31.2-7.3,41.2-18.9H150.9z" class="st1"></path>
</g>
<g id="leaves">
	<g>
		<path d="M205.5,46.3c-6.5,5.3-7.7,20.2-17.1,27.6c-4.6,3.6-12.5,3.7-18.3,0.8c1.5-0.1,2.9-0.6,4.3-0.9
			c3.5-1,6.9-2.2,9.8-4.5c6.4-5.1,9.6-12.9,14.5-19.2c0.6-0.7,1.2-1.3,2-1.7c-1.7,0.7-2.9,2.1-4,3.5c-5.5,6.6-9.6,15.2-17.9,18.8
			c-3,1.3-5.8,2.7-8.9,3.6C169.9,60.4,181.5,44.2,205.5,46.3z" class="st1"></path>
	</g>
	<g>
		<path d="M130.9,46c-2.1-1.1-4.3-2-6-3.7c1.6,1.8,3.8,2.9,5.8,4.1c10.2,5.7,21.4,10.1,29.6,18.7
			c3,3.2,6.7,5.9,7.7,10.3c-4.7,3.2-20,4.4-30.7-7.4c-5-5.5-12.3-16.6-15.7-30c8.9,6.7,29.5,4.9,38.4,12.8c8.3,7.4,9,21.1,8.3,23.8
			c-0.1-4.5-7.2-14.2-17.9-19.6C143.9,51.6,137.3,49.1,130.9,46z" class="st1"></path>
	</g>
</g>
</svg>
